<?xml version="1.0" standalone="no"?> <!DOCTYPE svg PUBLIC "-//W3C//DTD SVG 1.0//EN" "http://www.w3.org/TR/2001/REC-SVG-20010904/DTD/svg10.dtd" > <svg xmlns="http://www.w3.org/2000/svg" width="100%" height="100%">
<defs >
<font id="latoregular" horiz-adv-x="1108" ><font-face
    font-family="Lato"
    units-per-em="2000"
    panose-1="2 15 5 2 2 2 4 3 2 3"
    ascent="1974"
    descent="-426"
    alphabetic="0" />
<missing-glyph horiz-adv-x="1063" d="M250 1141Q275 1163 303 1182T366 1215T439 1238T525 1247Q588 1247 639 1230T727 1180T784 1103T805 1001Q805 946 790 906T753 837T703 786T652 745T611 708T589 666L572 561H450L438 678Q434 712 447 737T482 784T532
826T584 869T624 921T640 990Q640 1041 604 1071T510 1101Q469 1101 441 1092T393 1072T359 1052T334 1043Q309 1043 297 1065L250 1141ZM396 292Q396 339 427 371T506 403Q528 403 548 395T582 371T605 336T614 292Q614 269 606 249T583 214T548 191T506 182Q458
182 427 213T396 292ZM45 1433H1019V0H45V1433ZM95 54H962V1378H95V54Z" />
<glyph unicode=" " glyph-name="null" horiz-adv-x="512" />
<glyph unicode="!" glyph-name="null" horiz-adv-x="538" d="M355 1433V861Q355 816 353 773T348 687T341 598T330 500H210Q204 552 200 597T192 686T187 773T185 861V1433H355ZM142 110Q142 136 151 159T178 199T217 226T267 236Q293 236 315 226T355 199T382
159T392 110Q392 83 382 61T355 21T316 -5T267 -15Q240 -15 218 -6T178 21T152 60T142 110Z" />
<glyph unicode="&quot;" glyph-name="null" horiz-adv-x="741" d="M282 1433V1143L266 988Q261 956 248 939T204 921Q177 921 163 938T143 988L127 1143V1433H282ZM615 1433V1143L599 988Q594 956 581 939T537 921Q510 921 496 938T476 988L460 1143V1433H615Z" />
<glyph unicode="#" glyph-name="null" horiz-adv-x="1160" d="M730 880H483L418 554H665L730 880ZM1108 1011L1095 936Q1090 907 1072 894T1015 880H877L812 554H991Q1020 554 1032 538T1039 480L1030 423H793L709 0H628Q615 0 604 6T586 22T575 46T575 77L646
423H399L328 68Q322 31 299 16T247 0H167L252 423H106Q78 423 66 439T59 497L67 554H271L336 880H104L117 954Q122 983 140 997T197 1011H355L427 1369Q433 1399 454 1416T506 1433H586L502 1011H749L833 1433H912Q941 1433 957 1414T969 1366L896 1011H1108Z"
/>
<glyph unicode="$" glyph-name="null" horiz-adv-x="1160" d="M613 137Q679 143 729 165T813 223T865 304T883 407Q883 457 865 493T814 555T739 600T647 635L613 137ZM580 1293Q515 1287 468 1267T389 1217T343 1150T328 1071Q328 1023 345 988T392 925T462 878T549
842L580 1293ZM659 807Q731 784 801 758T927 691T1017 589T1052 435Q1052 345 1022 266T935 127T794 30T603 -15L591 -190Q590 -209 576 -223T541 -238H475L490 -13Q369 -1 270 47T98 171L152 253Q160 264 172 271T198 278Q217 278 241 259T300 216T384 169T501
138L537 669Q467 690 400 716T279 785T193 892T160 1053Q160 1126 188 1195T272 1319T407 1407T590 1446L600 1590Q601 1609 614 1624T650 1639H716L703 1442Q807 1429 883 1388T1019 1288L976 1222Q956 1192 930 1192Q916 1192 896 1204T847 1234T780 1267T692
1291L659 807Z" />
<glyph unicode="%" glyph-name="null" horiz-adv-x="1603" d="M722 1087Q722 1003 696 937T627 825T526 755T404 731Q337 731 279 755T179 824T112 936T88 1087Q88 1173 112 1240T178 1353T279 1423T404 1447Q472 1447 530 1423T631 1353T698 1240T722 1087ZM584
1087Q584 1153 570 1199T532 1274T474 1317T404 1330Q367 1330 335 1317T279 1275T241 1199T227 1087Q227 1022 241 977T279 903T335 862T404 849Q441 849 474 861T531 902T570 976T584 1087ZM1229 1403Q1239 1415 1252 1424T1289 1433H1418L370 29Q361 16 347
8T313 0H182L1229 1403ZM1515 338Q1515 254 1489 188T1420 77T1319 7T1197 -17Q1129 -17 1072 7T972 76T905 188T881 338Q881 424 905 491T971 605T1071 675T1197 699Q1264 699 1322 675T1423 605T1490 492T1515 338ZM1377 338Q1377 404 1363 450T1325 526T1267
568T1197 581Q1160 581 1128 568T1071 526T1034 451T1020 338Q1020 273 1033 228T1071 155T1127 114T1197 101Q1234 101 1267 113T1324 154T1363 228T1377 338Z" />
<glyph unicode="&amp;" glyph-name="null" horiz-adv-x="1424" d="M483 706Q377 650 324 570T270 396Q270 331 294 282T357 198T446 147T548 129Q660 129 749 170T906 280L483 706ZM1407 0H1234Q1205 0 1187 7T1148 36L1003 182Q909 91 787 38T517 -16Q437 -16
361 11T223 89T125 215T88 382Q88 452 111 514T177 630T276 725T401 797Q340 875 311 947T282 1098Q282 1171 308 1235T385 1346T506 1421T667 1449Q746 1449 811 1424T923 1356T997 1259T1029 1143L918 1121Q885 1113 869 1152Q862 1178 847 1206T807 1257T748
1295T667 1310Q617 1310 577 1294T508 1250T464 1183T449 1099Q449 1064 457 1032T482 967T527 900T592 828L1004 409Q1042 477 1065 550T1095 697Q1097 716 1107 727T1135 738H1244Q1243 623 1208 513T1107 305L1407 0Z" />
<glyph unicode="&apos;" glyph-name="null" horiz-adv-x="408" d="M282 1433V1143L266 988Q261 956 248 939T204 921Q177 921 163 938T143 988L127 1143V1433H282Z" />
<glyph unicode="(" glyph-name="null" horiz-adv-x="534" d="M245 629Q245 415 299 213T459 -171Q475 -202 467 -218T444 -245L365 -293Q290 -178 238 -65T153 162T105 391T90 629Q90 750 105 866T152 1095T237 1322T365 1551L444 1502Q459 1492 467 1476T459
1429Q354 1247 300 1045T245 629Z" />
<glyph unicode=")" glyph-name="null" horiz-adv-x="534" d="M289 629Q289 843 235 1045T75 1429Q67 1444 65 1455T66 1475T75 1490T90 1502L169 1551Q244 1435 296 1322T381 1096T429 866T444 629Q444 507 429 392T382 162T297 -65T169 -293L90 -245Q82 -240
76 -234T66 -219T65 -198T75 -171Q180 11 234 213T289 629Z" />
<glyph unicode="*" glyph-name="null" horiz-adv-x="850" d="M727 1059L683 984L510 1084Q492 1095 478 1106T453 1134Q469 1101 469 1061V863H381V1060Q381 1080 383 1097T394 1130Q383 1116 370 1105T340 1084L168 985L124 1060L296 1160Q334 1183 372 1184Q352
1186 334 1191T296 1209L123 1310L167 1385L340 1285Q358 1274 372 1262T397 1233Q381 1268 381 1308V1506H469V1309Q469 1289 467 1272T456 1238Q467 1252 480 1263T510 1285L682 1384L726 1309L554 1209Q537 1198 520 1192T484 1184Q503 1182 520 1177T554 1160L727
1059Z" />
<glyph unicode="+" glyph-name="null" horiz-adv-x="1160" d="M1060 604H652V174H507V604H101V739H507V1166H652V739H1060V604Z" />
<glyph unicode="," glyph-name="null" horiz-adv-x="454" d="M130 -242Q122 -235 119 -229T116 -214Q116 -207 120 -200T131 -187Q141 -176 156 -158T188 -116T217 -62T237 1Q234 0 231 0T224 0Q172 0 140 34T107 123Q107 170 139 203T226 236Q256 236 279 225T317
195T341 150T349 94Q349 49 337 1T300 -95T240 -188T160 -271L130 -242Z" />
<glyph unicode="-" glyph-name="null" horiz-adv-x="743" d="M125 675H619V524H125V675Z" />
<glyph unicode="." glyph-name="null" horiz-adv-x="472" d="M111 110Q111 136 120 159T146 199T186 226T235 236Q261 236 284 226T324 199T351 159T361 110Q361 83 351 61T324 21T284 -5T235 -15Q209 -15 186 -6T147 21T121 60T111 110Z" />
<glyph unicode="/" glyph-name="null" horiz-adv-x="904" d="M239 -21Q226 -56 199 -73T142 -90H67L668 1407Q680 1439 704 1456T761 1473H837L239 -21Z" />
<glyph unicode="0" glyph-name="null" horiz-adv-x="1160" d="M1100 716Q1100 528 1060 391T949 163T784 29T579 -15Q469 -15 375 29T210 163T100 390T60 716Q60 904 100 1042T210 1270T374 1405T579 1449Q688 1449 783 1405T949 1271T1059 1042T1100 716ZM915
716Q915 880 888 991T814 1171T706 1268T579 1298Q513 1298 452 1269T345 1171T272 992T244 716Q244 552 271 441T345 262T452 165T579 135Q645 135 706 164T813 262T887 441T915 716Z" />
<glyph unicode="1" glyph-name="null" horiz-adv-x="1160" d="M1018 136V0H250V136H557V1113Q557 1157 560 1202L305 983Q292 972 279 970T255 969T235 977T220 990L164 1067L591 1436H736V136H1018Z" />
<glyph unicode="2" glyph-name="null" horiz-adv-x="1160" d="M987 169Q1016 169 1033 152T1050 108V0H94V61Q94 80 102 100T127 137L586 598Q643 656 690 709T770 817T821 926T839 1045Q839 1108 819 1155T765 1234T683 1280T582 1296Q527 1296 481 1280T400
1236T340 1168T306 1082Q294 1047 274 1036T216 1029L123 1045Q137 1143 177 1218T279 1345T420 1422T591 1449Q682 1449 761 1422T898 1344T989 1218T1022 1050Q1022 970 998 902T933 771T839 650T725 531L347 145Q387 156 428 162T507 169H987Z" />
<glyph unicode="3" glyph-name="null" horiz-adv-x="1160" d="M130 1045Q144 1143 184 1218T285 1345T426 1422T598 1449Q689 1449 766 1423T898 1349T985 1233T1016 1082Q1016 1014 999 961T949 867T870 799T767 753Q907 717 977 630T1048 411Q1048 312 1011
233T908 99T757 14T571 -16Q457 -16 376 12T239 91T147 209T86 358L163 390Q193 403 221 397T263 364Q276 336 295 297T349 222T435 161T569 136Q644 136 700 160T794 224T851 311T870 406Q870 464 855 512T799 595T687 650T503 670V799Q595 800 659 819T764 871T823
950T842 1052Q842 1114 823 1160T769 1236T689 1281T588 1296Q534 1296 488 1280T406 1236T346 1168T312 1082Q299 1047 280 1036T223 1029L130 1045Z" />
<glyph unicode="4" glyph-name="null" horiz-adv-x="1160" d="M730 517V1108Q730 1134 732 1165T738 1228L216 517H730ZM1103 517V415Q1103 399 1094 388T1064 377H886V0H730V377H94Q74 377 60 388T41 417L23 508L720 1433H886V517H1103Z" />
<glyph unicode="5" glyph-name="null" horiz-adv-x="1160" d="M362 892Q474 916 568 916Q680 916 766 883T909 792T996 655T1026 483Q1026 369 987 277T878 120T714 19T511 -16Q448 -16 390 -4T282 30T188 78T112 135L167 211Q185 237 214 237Q234 237 259 222T320
187T404 153T520 137Q595 137 655 161T758 229T824 336T847 475Q847 542 828 596T769 688T670 747T532 768Q478 768 420 759T300 730L188 763L303 1433H982V1355Q982 1317 959 1293T878 1268H428L362 892Z" />
<glyph unicode="6" glyph-name="null" horiz-adv-x="1160" d="M578 132Q650 132 708 155T808 219T872 316T895 438Q895 508 873 564T811 660T714 721T591 742Q519 742 461 718T363 652T301 556T279 442Q279 373 299 316T357 218T451 155T578 132ZM474 896Q455
872 438 850T404 805Q455 840 516 859T649 878Q736 878 813 850T947 767T1039 633T1073 451Q1073 352 1037 267T937 119T782 20T582 -16Q474 -16 386 18T237 116T142 270T108 473Q108 567 149 673T282 901L646 1390Q660 1408 684 1420T741 1433H899L474 896Z" />
<glyph unicode="7" glyph-name="null" horiz-adv-x="1160" d="M1081 1433V1353Q1081 1319 1074 1297T1059 1260L465 63Q452 37 429 19T368 0H240L842 1182Q855 1207 869 1228T899 1268H151Q134 1268 121 1281T108 1312V1433H1081Z" />
<glyph unicode="8" glyph-name="null" horiz-adv-x="1160" d="M580 126Q650 126 705 145T799 200T858 285T879 395Q879 469 855 521T789 607T693 655T580 671Q521 671 467 656T372 607T306 522T281 395Q281 335 301 286T360 201T454 146T580 126ZM580 1311Q516
1311 468 1292T387 1240T338 1163T321 1069Q321 1020 335 974T380 893T460 836T580 814Q650 814 699 835T780 892T825 974T839 1069Q839 1119 823 1163T774 1240T693 1292T580 1311ZM785 747Q919 709 991 620T1063 392Q1063 298 1028 223T929 94T776 13T580 -16Q473
-16 384 12T231 94T132 222T97 392Q97 531 169 620T375 747Q262 789 205 872T147 1072Q147 1151 178 1220T266 1340T402 1420T580 1449Q677 1449 757 1420T894 1340T982 1220T1013 1072Q1013 956 956 873T785 747Z" />
<glyph unicode="9" glyph-name="null" horiz-adv-x="1160" d="M283 1012Q283 944 302 891T358 800T447 744T565 725Q637 725 692 748T786 811T844 901T864 1007Q864 1074 843 1128T783 1221T693 1279T577 1300Q511 1300 457 1279T364 1219T304 1128T283 1012ZM699
571Q721 600 740 626T776 678Q721 634 652 611T506 588Q425 588 353 615T225 694T138 823T105 999Q105 1093 140 1175T238 1318T388 1414T579 1449Q682 1449 766 1415T910 1320T1002 1174T1035 986Q1035 924 1024 869T991 760T938 654T868 546L519 42Q506 23 482
12T427 0H263L699 571Z" />
<glyph unicode=":" glyph-name="null" horiz-adv-x="500" d="M125 110Q125 136 134 159T160 199T200 226T249 236Q275 236 298 226T338 199T365 159T375 110Q375 83 365 61T338 21T298 -5T249 -15Q223 -15 200 -6T161 21T135 60T125 110ZM125 860Q125 886 134
909T160 949T200 976T249 986Q275 986 298 976T338 949T365 909T375 860Q375 833 365 811T338 771T298 745T249 735Q223 735 200 744T161 771T135 810T125 860Z" />
<glyph unicode=";" glyph-name="null" horiz-adv-x="523" d="M164 -242Q156 -235 153 -229T150 -214Q150 -207 154 -200T165 -187Q175 -176 190 -158T222 -116T251 -62T271 1Q268 0 265 0T258 0Q206 0 174 34T141 123Q141 170 173 203T260 236Q290 236 313 225T351
195T375 150T383 94Q383 49 371 1T334 -95T274 -188T194 -271L164 -242ZM136 860Q136 886 145 909T171 949T211 976T260 986Q286 986 309 976T349 949T376 909T386 860Q386 833 376 811T349 771T309 745T260 735Q234 735 211 744T172 771T146 810T136 860Z" />
<glyph unicode="&lt;" glyph-name="null" horiz-adv-x="1160" d="M450 704Q430 694 408 686T359 673Q385 667 407 660T450 641L899 414Q919 404 927 391T935 362V234L162 636V710L935 1111V984Q935 967 927 955T899 932L450 704Z" />
<glyph unicode="=" glyph-name="null" horiz-adv-x="1160" d="M150 574H1010V439H150V574ZM150 909H1010V774H150V909Z" />
<glyph unicode="&gt;" glyph-name="null" horiz-adv-x="1160" d="M998 710V636L225 234V362Q225 378 233 391T261 414L710 641Q730 652 752 659T800 673Q749 684 710 704L261 932Q241 942 233 954T225 984V1111L998 710Z" />
<glyph unicode="?" glyph-name="null" horiz-adv-x="895" d="M81 1305Q112 1334 149 1360T231 1406T327 1437T439 1449Q518 1449 585 1426T702 1361T779 1259T807 1124Q807 1048 785 993T728 897T653 825T576 767T515 713T485 653L467 500H345L333 666Q329 711
350 744T405 807T480 865T556 929T616 1008T640 1115Q640 1158 623 1193T577 1252T509 1290T424 1303Q363 1303 320 1288T246 1255T198 1222T167 1207Q142 1207 128 1230L81 1305ZM276 110Q276 136 285 159T311 199T351 226T400 236Q426 236 449 226T489 199T516
159T526 110Q526 83 516 61T489 21T449 -5T400 -15Q374 -15 351 -6T312 21T286 60T276 110Z" />
<glyph unicode="@" glyph-name="null" horiz-adv-x="1673" d="M1055 822Q1016 831 969 831Q894 831 832 800T724 717T654 600T628 465Q628 393 661 350T759 306Q790 306 821 316T882 351T937 419T979 527L1055 822ZM1117 543Q1097 467 1098 420T1113 345T1154
309T1211 299Q1260 299 1304 327T1381 406T1434 528T1454 687Q1454 825 1410 929T1289 1102T1106 1206T878 1241Q744 1241 627 1190T423 1049T286 836T235 568Q235 398 288 270T434 54T652 -77T920 -121Q1072 -121 1188 -88T1390 -4Q1410 8 1425 4T1447 -19L1473
-85Q1365 -157 1229 -198T920 -239Q746 -239 597 -184T339 -26T167 228T104 568Q104 677 131 778T209 966T329 1126T485 1250T670 1330T878 1359Q970 1359 1058 1339T1224 1280T1368 1184T1482 1052T1556 886T1583 687Q1583 579 1553 488T1469 329T1342 224T1185
186Q1109 186 1060 223T996 338Q939 258 871 223T724 188Q665 188 621 208T547 265T504 352T489 460Q489 545 521 631T618 787T777 901T997 945Q1064 945 1115 935T1211 904L1117 543Z" />
<glyph unicode="A" glyph-name="null" horiz-adv-x="1354" d="M944 532L719 1115Q709 1141 698 1175T677 1249Q656 1168 634 1114L409 532H944ZM1348 0H1198Q1172 0 1156 13T1132 46L998 392H355L221 46Q215 28 198 14T156 0H6L579 1433H775L1348 0Z" />
<glyph unicode="B" glyph-name="null" horiz-adv-x="1293" d="M686 154Q769 154 829 173T927 226T984 308T1002 413Q1002 524 923 588T686 653H376V154H686ZM376 1280V791H632Q714 791 774 809T874 859T933 936T952 1036Q952 1163 876 1221T640 1280H376ZM640
1433Q772 1433 867 1407T1024 1333T1115 1216T1144 1059Q1144 1006 1128 958T1078 867T995 792T876 737Q1034 707 1113 625T1193 408Q1193 317 1160 242T1062 113T903 30T689 0H183V1433H640Z" />
<glyph unicode="C" glyph-name="null" horiz-adv-x="1336" d="M1189 296Q1205 296 1217 283L1294 200Q1206 98 1081 41T777 -16Q623 -16 497 37T282 187T144 419T95 716Q95 878 146 1013T289 1245T511 1395T796 1449Q949 1449 1066 1400T1272 1267L1208 1178Q1202
1168 1193 1162T1167 1155Q1149 1155 1123 1174T1055 1218T950 1261T795 1281Q684 1281 592 1243T434 1131T330 953T293 716Q293 582 331 477T436 300T593 189T789 151Q853 151 904 158T999 182T1080 222T1155 281Q1172 296 1189 296Z" />
<glyph unicode="D" glyph-name="null" horiz-adv-x="1521" d="M1425 716Q1425 555 1374 423T1230 197T1007 52T718 0H183V1433H718Q876 1433 1006 1382T1230 1236T1374 1009T1425 716ZM1226 716Q1226 848 1190 952T1088 1128T928 1238T718 1276H377V157H718Q834
157 928 195T1088 304T1190 480T1226 716Z" />
<glyph unicode="E" glyph-name="null" horiz-adv-x="1155" d="M1067 158L1066 0H183V1433H1066V1275H377V799H935V647H377V158H1067Z" />
<glyph unicode="F" glyph-name="null" horiz-adv-x="1131" d="M377 1275V774H966V616H377V0H183V1433H1066V1275H377Z" />
<glyph unicode="G" glyph-name="null" horiz-adv-x="1461" d="M1347 689V139Q1239 61 1117 23T848 -16Q675 -16 536 37T299 187T147 419T94 716Q94 880 145 1015T292 1246T523 1396T827 1449Q912 1449 985 1437T1120 1401T1235 1344T1334 1268L1279 1180Q1266
1160 1246 1155T1200 1164Q1176 1178 1145 1198T1070 1236T965 1268T821 1281Q700 1281 602 1242T435 1129T329 951T292 716Q292 581 330 475T440 294T614 180T843 141Q943 141 1020 163T1172 226V541H949Q930 541 919 552T907 579V689H1347Z" />
<glyph unicode="H" glyph-name="null" horiz-adv-x="1527" d="M1344 1433V0H1150V652H377V0H183V1433H377V794H1150V1433H1344Z" />
<glyph unicode="I" glyph-name="null" horiz-adv-x="560" d="M377 0H183V1433H377V0Z" />
<glyph unicode="J" glyph-name="null" horiz-adv-x="845" d="M677 495Q677 375 648 280T561 120T419 19T226 -16Q127 -16 24 12Q26 41 29 69T34 126Q36 143 46 153T79 164Q97 164 126 155T206 146Q272 146 324 166T411 228T464 335T483 491V1433H677V495Z" />
<glyph unicode="K" glyph-name="null" horiz-adv-x="1325" d="M376 805H449Q487 805 510 814T552 847L1029 1387Q1049 1413 1071 1423T1125 1433H1289L743 816Q723 792 705 777T665 751Q692 742 714 725T757 679L1327 0H1159Q1140 0 1127 2T1103 10T1086 23T1071
41L577 610Q557 635 534 645T464 656H376V0H183V1433H376V805Z" />
<glyph unicode="L" glyph-name="null" horiz-adv-x="1027" d="M996 163V0H183V1433H376V163H996Z" />
<glyph unicode="M" glyph-name="null" horiz-adv-x="1857" d="M1674 1433V0H1504V1053Q1504 1074 1505 1098T1509 1147L1017 251Q994 206 947 206H919Q872 206 849 251L347 1151Q353 1098 353 1053V0H183V1433H326Q352 1433 366 1428T393 1400L888 518Q900 494
911 468T933 415Q943 442 954 468T978 519L1464 1400Q1476 1423 1490 1428T1531 1433H1674Z" />
<glyph unicode="N" glyph-name="null" horiz-adv-x="1527" d="M1344 1433V0H1247Q1224 0 1209 8T1178 35L349 1115Q351 1090 352 1066T353 1021V0H183V1433H283Q296 1433 305 1432T321 1427T335 1417T350 1400L1179 321Q1177 347 1176 371T1174 418V1433H1344Z" />
<glyph unicode="O" glyph-name="null" horiz-adv-x="1601" d="M1507 716Q1507 555 1456 421T1312 189T1089 39T800 -15Q642 -15 512 38T289 189T145 420T94 716Q94 877 145 1011T289 1243T512 1395T800 1449Q958 1449 1088 1395T1312 1244T1456 1012T1507 716ZM1308
716Q1308 848 1272 953T1170 1130T1010 1242T800 1281Q685 1281 591 1242T431 1131T328 953T292 716Q292 584 328 480T430 303T591 192T800 153Q916 153 1010 191T1170 302T1272 479T1308 716Z" />
<glyph unicode="P" glyph-name="null" horiz-adv-x="1201" d="M606 690Q689 690 752 712T859 773T925 868T947 989Q947 1126 863 1203T606 1280H376V690H606ZM606 1433Q742 1433 842 1402T1009 1312T1107 1172T1140 989Q1140 889 1105 806T1003 663T836 570T606
536H376V0H183V1433H606Z" />
<glyph unicode="Q" glyph-name="null" horiz-adv-x="1601" d="M293 716Q293 584 329 480T431 303T592 192T801 153Q917 153 1011 191T1171 302T1273 479T1309 716Q1309 848 1273 953T1171 1130T1011 1242T801 1281Q686 1281 592 1242T432 1131T329 953T293 716ZM1574
-296H1414Q1378 -296 1350 -286T1299 -251L1048 23Q934 -15 801 -15Q643 -15 513 38T290 189T146 420T95 716Q95 877 146 1011T290 1243T513 1395T801 1449Q959 1449 1089 1395T1313 1244T1457 1012T1508 716Q1508 615 1488 524T1428 355T1333 212T1207 101L1574
-296Z" />
<glyph unicode="R" glyph-name="null" horiz-adv-x="1253" d="M580 739Q664 739 728 759T836 817T902 907T924 1022Q924 1150 840 1215T588 1280H376V739H580ZM1242 0H1070Q1017 0 992 41L620 553Q603 577 584 587T523 598H376V0H183V1433H588Q724 1433 823 1406T986
1326T1082 1201T1113 1036Q1113 960 1089 894T1020 776T909 686T760 630Q797 609 824 569L1242 0Z" />
<glyph unicode="S" glyph-name="null" horiz-adv-x="1085" d="M916 1209Q907 1194 897 1187T871 1179Q854 1179 831 1196T774 1233T691 1271T573 1288Q508 1288 459 1271T376 1223T325 1153T308 1065Q308 1005 337 966T415 898T525 850T651 807T777 758T887 688T965
585T995 435Q995 341 963 259T870 115T719 19T515 -16Q375 -16 261 34T66 171L122 263Q130 274 141 281T167 289Q180 289 196 279T234 252T282 217T343 182T422 156T521 145Q590 145 644 164T735 217T793 300T813 407Q813 472 784 513T706 583T596 630T470 670T344
718T234 788T157 895T127 1055Q127 1131 156 1202T242 1328T381 1416T571 1449Q691 1449 789 1411T963 1301L916 1209Z" />
<glyph unicode="T" glyph-name="null" horiz-adv-x="1181" d="M1152 1270H688V0H495V1270H30V1433H1152V1270Z" />
<glyph unicode="U" glyph-name="null" horiz-adv-x="1471" d="M736 154Q825 154 895 184T1013 268T1087 397T1113 562V1433H1306V562Q1306 438 1267 332T1154 149T974 27T736 -17Q604 -17 498 27T318 148T205 332T165 562V1433H358V563Q358 473 383 398T457 269T576
185T736 154Z" />
<glyph unicode="V" glyph-name="null" horiz-adv-x="1354" d="M1348 1433L764 0H590L6 1433H161Q187 1433 203 1420T227 1387L631 376Q644 342 656 302T679 218Q689 262 700 302T724 376L1127 1387Q1133 1404 1150 1418T1193 1433H1348Z" />
<glyph unicode="W" glyph-name="null" horiz-adv-x="2071" d="M2040 1433L1593 0H1419L1056 1093Q1051 1109 1047 1127T1037 1165Q1032 1145 1027 1127T1017 1093L652 0H478L31 1433H192Q218 1433 235 1420T258 1387L554 391Q561 364 567 333T580 267Q587 302
594 333T611 391L948 1387Q954 1404 971 1418T1014 1433H1070Q1096 1433 1112 1420T1136 1387L1472 391Q1481 365 1488 335T1503 272Q1508 305 1514 335T1527 391L1824 1387Q1829 1405 1846 1419T1889 1433H2040Z" />
<glyph unicode="X" glyph-name="null" horiz-adv-x="1298" d="M1276 0H1084Q1062 0 1050 11T1029 37L645 639Q637 615 627 598L253 37Q243 23 232 12T200 0H20L513 736L40 1433H233Q254 1433 264 1426T282 1406L656 832Q663 853 677 878L1030 1402Q1038 1416 1049
1424T1075 1433H1260L785 745L1276 0Z" />
<glyph unicode="Y" glyph-name="null" horiz-adv-x="1248" d="M721 571V0H527V571L2 1433H172Q198 1433 213 1421T239 1388L567 831Q585 796 600 766T626 704Q637 735 651 765T682 831L1009 1388Q1018 1405 1034 1419T1075 1433H1246L721 571Z" />
<glyph unicode="Z" glyph-name="null" horiz-adv-x="1204" d="M1139 1361Q1139 1328 1119 1297L308 158H1127V0H53V76Q53 92 58 106T72 133L885 1275H91V1433H1139V1361Z" />
<glyph unicode="[" glyph-name="null" horiz-adv-x="612" d="M332 1416V-171H501Q523 -171 536 -185T550 -219V-289H182V1533H550V1463Q550 1443 537 1430T501 1416H332Z" />
<glyph unicode="\" glyph-name="null" horiz-adv-x="904" d="M67 1473H143Q175 1473 199 1456T236 1407L837 -90H762Q733 -90 705 -73T665 -21L67 1473Z" />
<glyph unicode="]" glyph-name="null" horiz-adv-x="612" d="M430 -289H62V-219Q62 -199 75 -185T111 -171H280V1416H111Q89 1416 76 1429T62 1463V1533H430V-289Z" />
<glyph unicode="^" glyph-name="null" horiz-adv-x="1160" d="M1028 696H898Q881 696 869 705T849 730L619 1173Q593 1226 579 1270Q572 1247 563 1223T543 1173L320 730Q314 716 301 706T268 696H132L520 1433H635L1028 696Z" />
<glyph unicode="_" glyph-name="null" horiz-adv-x="918" d="M853 -165V-285H65V-165H853Z" />
<glyph unicode="`" glyph-name="null" horiz-adv-x="800" d="M300 1449Q333 1449 349 1439T379 1405L528 1163H426Q405 1163 392 1169T365 1191L131 1449H300Z" />
<glyph unicode="a" glyph-name="null" horiz-adv-x="994" d="M690 456Q567 452 481 437T340 396T261 337T236 261Q236 221 249 192T284 145T337 118T403 109Q450 109 489 118T562 146T628 189T690 246V456ZM115 870Q199 951 296 991T511 1031Q596 1031 662 1003T773
925T841 804T864 648V0H785Q759 0 745 8T723 42L703 138Q663 101 625 73T545 25T456 -5T350 -16Q291 -16 239 0T149 50T88 133T65 253Q65 313 98 368T205 467T398 537T690 569V648Q690 766 639 826T490 887Q424 887 380 871T303 834T247 797T200 780Q182 780 169
789T147 813L115 870Z" />
<glyph unicode="b" glyph-name="null" horiz-adv-x="1120" d="M320 244Q369 178 427 151T556 124Q699 124 775 225T851 526Q851 712 784 799T591 887Q504 887 440 847T320 734V244ZM320 867Q384 941 464 985T650 1029Q739 1029 810 995T932 897T1008 740T1035
533Q1035 410 1005 309T919 137T781 26T599 -14Q499 -14 431 23T311 130L302 38Q294 0 256 0H141V1473H320V867Z" />
<glyph unicode="c" glyph-name="null" horiz-adv-x="955" d="M846 833Q838 822 830 816T808 810Q793 810 775 822T731 850T666 877T571 890Q496 890 439 864T344 787T286 666T266 507Q266 415 287 344T346 224T439 150T562 124Q627 124 669 139T738 174T784 208T821
224Q843 224 855 207L905 142Q872 101 830 72T740 24T638 -5T530 -14Q435 -14 354 21T212 122T118 286T84 507Q84 620 115 716T207 881T356 990T560 1029Q667 1029 748 995T893 897L846 833Z" />
<glyph unicode="d" glyph-name="null" horiz-adv-x="1120" d="M801 772Q751 839 693 865T563 892Q422 892 346 791T270 503Q270 404 287 334T337 218T418 151T527 130Q615 130 680 170T801 283V772ZM979 1473V0H873Q835 0 825 37L809 160Q744 82 661 34T469 -14Q382
-14 311 19T190 118T113 280T86 503Q86 615 116 711T202 879T339 990T523 1031Q616 1031 682 1000T801 912V1473H979Z" />
<glyph unicode="e" glyph-name="null" horiz-adv-x="1056" d="M819 617Q819 679 802 730T751 819T669 877T560 898Q432 898 358 824T265 617H819ZM963 142Q930 102 884 73T786 24T677 -4T566 -14Q461 -14 373 21T220 125T119 295T83 527Q83 633 115 725T209 884T358
990T556 1029Q647 1029 724 999T858 911T947 769T979 576Q979 534 970 520T936 506H259Q262 410 285 339T351 221T451 150T581 126Q648 126 696 141T780 175T838 208T879 224Q901 224 913 207L963 142Z" />
<glyph unicode="f" glyph-name="null" horiz-adv-x="701" d="M207 0V861L95 874Q74 879 61 889T47 920V993H207V1091Q207 1178 231 1245T301 1359T411 1430T555 1454Q623 1454 680 1434L676 1345Q674 1321 650 1319T584 1317Q538 1317 501 1305T436 1266T395 1195T380
1086V993H672V864H386V0H207Z" />
<glyph unicode="g" glyph-name="null" horiz-adv-x="1040" d="M494 495Q548 495 589 510T658 552T700 616T714 699Q714 792 658 847T494 902Q386 902 330 847T273 699Q273 654 287 617T330 552T399 510T494 495ZM815 -55Q815 -18 794 5T738 41T655 59T556 68T449
74T345 84Q289 58 254 19T218 -74Q218 -108 235 -137T289 -188T379 -222T508 -235Q580 -235 637 -222T733 -185T794 -128T815 -55ZM996 973V907Q996 874 954 865L839 850Q873 784 873 704Q873 630 845 570T766 466T646 400T494 377Q423 377 360 394Q328 374 311
352T294 306Q294 270 323 252T401 225T510 215T636 209T762 193T872 157T949 88T979 -26Q979 -91 947 -152T853 -260T704 -336T504 -365Q393 -365 310 -343T172 -284T90 -199T62 -97Q62 -22 109 30T238 113Q193 133 167 166T140 257Q140 279 148 302T172 349T213
394T269 431Q194 473 152 542T110 704Q110 778 138 838T218 941T339 1007T494 1030Q560 1030 617 1016T721 973H996Z" />
<glyph unicode="h" glyph-name="null" horiz-adv-x="1116" d="M320 878Q385 947 464 988T646 1029Q729 1029 792 1002T898 924T963 802T985 645V0H806V645Q806 760 754 823T594 887Q515 887 447 849T320 746V0H141V1473H320V878Z" />
<glyph unicode="i" glyph-name="null" horiz-adv-x="480" d="M329 1013V0H151V1013H329ZM367 1331Q367 1305 357 1283T329 1243T288 1215T238 1205Q212 1205 190 1215T150 1242T123 1282T113 1331Q113 1357 123 1380T150 1421T189 1449T238 1459Q264 1459 287
1449T328 1422T356 1381T367 1331Z" />
<glyph unicode="j" glyph-name="null" horiz-adv-x="480" d="M329 1013V-75Q329 -136 313 -188T262 -280T173 -341T42 -364Q10 -364 -17 -359T-71 -344L-64 -248Q-62 -239 -58 -235T-45 -229T-25 -228T7 -229Q85 -229 118 -193T151 -75V1013H329ZM366 1331Q366
1305 356 1283T328 1243T287 1215T238 1205Q212 1205 190 1215T150 1242T123 1282T113 1331Q113 1357 123 1380T150 1421T189 1449T238 1459Q264 1459 287 1449T327 1422T355 1381T366 1331Z" />
<glyph unicode="k" glyph-name="null" horiz-adv-x="1016" d="M320 1473V606H366Q386 606 399 611T428 634L748 977Q762 994 777 1003T819 1013H980L607 616Q580 582 549 563Q567 551 581 536T609 500L1005 0H846Q823 0 807 7T778 35L445 450Q430 471 416 477T371
484H320V0H141V1473H320Z" />
<glyph unicode="l" glyph-name="null" horiz-adv-x="472" d="M325 1473V0H147V1473H325Z" />
<glyph unicode="m" glyph-name="null" horiz-adv-x="1645" d="M141 0V1013H248Q286 1013 295 976L308 872Q364 941 434 985T596 1029Q698 1029 761 972T853 818Q875 873 909 913T987 979T1078 1017T1177 1029Q1257 1029 1319 1004T1425 929T1492 809T1515 645V0H1336V645Q1336
764 1284 825T1134 887Q1090 887 1051 872T981 826T934 751T916 645V0H737V645Q737 767 688 827T545 887Q479 887 423 852T320 755V0H141Z" />
<glyph unicode="n" glyph-name="null" horiz-adv-x="1116" d="M309 866Q342 903 379 933T457 984T545 1017T646 1029Q729 1029 792 1002T898 924T963 802T985 645V0H806V645Q806 760 754 823T594 887Q515 887 447 849T320 746V0H141V1013H248Q286 1013 295 976L309 866Z" />
<glyph unicode="o" glyph-name="null" horiz-adv-x="1134" d="M568 1029Q679 1029 768 992T920 887T1016 723T1050 507Q1050 387 1017 291T920 127T768 23T568 -14Q456 -14 367 22T214 127T118 291T84 507Q84 626 117 722T214 887T366 992T568 1029ZM568 125Q718
125 792 225T866 506Q866 687 792 788T568 889Q492 889 436 863T342 788T286 668T267 506Q267 326 341 226T568 125Z" />
<glyph unicode="p" glyph-name="null" horiz-adv-x="1121" d="M320 244Q369 178 427 151T557 124Q699 124 775 225T851 513Q851 612 834 683T783 799T702 866T593 887Q506 887 441 847T320 734V244ZM311 856Q375 935 459 983T651 1031Q739 1031 810 998T931 899T1008
736T1035 513Q1035 401 1005 305T919 138T781 27T597 -14Q504 -14 438 17T320 105V-343H141V1013H248Q286 1013 295 976L311 856Z" />
<glyph unicode="q" glyph-name="null" horiz-adv-x="1120" d="M801 773Q753 837 694 864T563 892Q422 892 346 791T270 503Q270 404 287 334T337 218T418 151T527 130Q615 130 680 170T801 283V773ZM979 1013V-343H801V151Q738 77 656 32T469 -14Q382 -14 311
19T190 118T113 280T86 503Q86 615 116 711T202 879T339 990T523 1031Q622 1031 691 996T813 898L825 976Q835 1013 873 1013H979Z" />
<glyph unicode="r" glyph-name="null" horiz-adv-x="728" d="M310 810Q358 914 428 972T599 1031Q631 1031 660 1024T713 1002L700 869Q694 844 670 844Q656 844 629 850T568 856Q520 856 483 842T416 801T363 733T320 640V0H141V1013H243Q272 1013 283 1002T298
964L310 810Z" />
<glyph unicode="s" glyph-name="null" horiz-adv-x="866" d="M731 846Q719 824 694 824Q679 824 660 835T614 859T548 884T458 896Q413 896 377 885T316 853T277 807T263 749Q263 710 285 684T345 639T429 606T525 575T622 538T706 488T765 415T788 310Q788 240
763 181T689 78T569 9T405 -16Q299 -16 213 18T67 107L109 175Q117 188 128 195T156 202Q174 202 194 188T242 157T312 126T414 112Q466 112 505 125T570 162T608 215T621 279Q621 321 599 348T539 395T455 429T358 460T261 496T176 548T117 624T94 735Q94 793
118 846T188 940T301 1005T454 1029Q554 1029 633 998T771 911L731 846Z" />
<glyph unicode="t" glyph-name="null" horiz-adv-x="717" d="M452 -16Q332 -16 268 51T203 244V864H81Q65 864 54 873T43 903V974L209 995L250 1308Q253 1323 263 1332T291 1342H381V993H674V864H381V256Q381 192 412 161T492 130Q520 130 540 137T576 154T601
170T620 178Q634 178 645 161L697 76Q651 33 586 9T452 -16Z" />
<glyph unicode="u" glyph-name="null" horiz-adv-x="1115" d="M974 1013V0H868Q830 0 820 37L806 146Q740 73 658 29T470 -16Q387 -16 324 11T217 89T153 210T131 367V1013H309V367Q309 252 361 189T522 126Q601 126 669 163T796 267V1013H974Z" />
<glyph unicode="v" glyph-name="null" horiz-adv-x="1032" d="M1009 1013L596 0H436L23 1013H168Q190 1013 204 1002T223 976L480 324Q492 287 501 252T518 182Q526 217 535 252T557 324L817 976Q823 992 837 1002T870 1013H1009Z" />
<glyph unicode="w" glyph-name="null" horiz-adv-x="1571" d="M1538 1013L1210 0H1069Q1043 0 1033 34L809 721Q801 744 796 767T786 814Q781 791 776 768T763 720L535 34Q526 0 495 0H361L33 1013H173Q194 1013 208 1002T228 976L422 324Q439 252 449 188Q458
221 467 255T488 324L702 980Q707 995 719 1005T750 1015H828Q848 1015 861 1005T879 980L1088 324Q1099 289 1108 255T1125 188Q1130 221 1137 254T1154 324L1352 976Q1357 992 1371 1002T1404 1013H1538Z" />
<glyph unicode="x" glyph-name="null" horiz-adv-x="996" d="M973 0H802Q780 0 768 11T747 37L492 434Q488 420 484 407T471 382L235 37Q225 23 214 12T182 0H23L378 520L37 1013H208Q230 1013 240 1006T258 986L507 606Q515 635 532 662L750 982Q759 996 769
1004T795 1013H959L618 529L973 0Z" />
<glyph unicode="y" glyph-name="null" horiz-adv-x="1031" d="M1015 1013L450 -299Q441 -319 428 -331T386 -343H254L439 59L21 1013H175Q198 1013 211 1002T230 976L501 338Q517 296 528 250Q542 297 558 339L821 976Q827 992 841 1002T874 1013H1015Z" />
<glyph unicode="z" glyph-name="null" horiz-adv-x="904" d="M840 937Q840 918 834 900T816 869L267 139H821V0H58V74Q58 87 64 104T82 138L634 873H89V1013H840V937Z" />
<glyph unicode="{" glyph-name="null" horiz-adv-x="602" d="M476 1416Q398 1416 354 1366T310 1229Q310 1173 317 1121T333 1020T349 921T356 822Q356 785 345 753T314 694T266 650T205 622Q238 613 265 595T313 551T345 493T356 423Q356 373 349 324T333 226T317
124T310 16Q310 -71 354 -121T476 -171H496Q508 -171 522 -180T536 -209V-289H482Q401 -289 340 -266T237 -200T175 -100T154 27Q154 79 162 128T179 227T196 326T204 425Q204 488 169 528T68 569V676Q134 676 169 716T204 820Q204 870 196 919T179 1017T162 1116T154
1218Q154 1287 174 1345T236 1445T339 1510T482 1533H536V1454Q536 1434 522 1425T496 1416H476Z" />
<glyph unicode="|" glyph-name="null" horiz-adv-x="501" d="M181 1533H320V-349H181V1533Z" />
<glyph unicode="}" glyph-name="null" horiz-adv-x="602" d="M534 569Q468 569 433 529T398 425Q398 375 406 326T423 228T440 129T448 27Q448 -42 428 -100T366 -200T263 -265T120 -289H66V-209Q66 -189 80 -180T106 -171H126Q204 -171 248 -121T292 16Q292 72
285 124T269 225T253 324T246 423Q246 460 257 492T288 551T336 595T397 622Q364 631 337 649T289 694T257 752T246 822Q246 872 253 921T269 1019T285 1121T292 1229Q292 1315 248 1365T126 1416H106Q95 1416 81 1425T66 1454V1533H120Q201 1533 262 1510T365
1445T427 1345T448 1218Q448 1166 440 1116T423 1017T406 919T398 820Q398 756 433 716T534 676V569Z" />
<glyph unicode="~" glyph-name="null" horiz-adv-x="1160" d="M763 613Q828 613 864 655T902 768H1046Q1046 701 1028 645T975 549T889 487T774 465Q722 465 671 481T573 516T482 552T403 569Q338 569 302 527T264 414H120Q120 481 138 537T191 633T276 695T392
718Q444 718 495 702T593 666T684 630T763 613Z" />
</font>
</defs>
</svg>
